<?xml version="1.0" encoding="utf-8"?>
<!-- Generator: Adobe Illustrator 17.1.0, SVG Export Plug-In . SVG Version: 6.00 Build 0)  -->
<!DOCTYPE svg PUBLIC "-//W3C//DTD SVG 1.1//EN" "http://www.w3.org/Graphics/SVG/1.1/DTD/svg11.dtd">
<svg version="1.1" id="Layer_1" xmlns="http://www.w3.org/2000/svg" xmlns:xlink="http://www.w3.org/1999/xlink" x="0px" y="0px"
	 viewBox="0 0 524 99.2" enable-background="new 0 0 524 99.2" xml:space="preserve">
<g>
	<path d="M40.1,42L40,57.7c0,3.1-0.1,5.9-0.4,8.4c2.1-0.2,4.2-0.3,6.2-0.3v7.3H27.7c-0.1-0.8-0.3-2.3-0.4-4.4h-0.1
		c-3.9,4-8.6,5.9-14.2,5.9c-4,0-7.2-1.2-9.5-3.6C1.2,68.7,0,65.7,0,62c0-5.6,2.6-9.9,7.9-12.8c5.2-2.9,11.5-4.5,18.9-4.8v-5
		c0-5.8-2.2-8.7-6.5-8.7c-2.8,0-5.1,0.9-6.9,2.7c0.8,0.9,1.2,2.1,1.2,3.6c0,1.5-0.5,2.9-1.6,4.1c-1.1,1.2-2.6,1.8-4.7,1.8
		c-1.9,0-3.4-0.6-4.5-1.9c-1.1-1.2-1.6-2.8-1.6-4.7c0-2.5,0.9-4.7,2.7-6.6c1.8-1.9,4.2-3.4,7.3-4.5c3.1-1.1,6.5-1.6,10.2-1.6
		C34.2,23.7,40.1,29.8,40.1,42z M17.3,54c-2.5,1.5-3.7,3.6-3.7,6.2c0,1.7,0.5,3,1.6,3.8c1.1,0.8,2.3,1.2,3.9,1.2
		c2.9,0,5.4-1.2,7.6-3.5V51.1C22.9,51.5,19.8,52.5,17.3,54z"/>
	<path d="M92.7,26.7c2.9,2,5.2,4.8,6.8,8.5c1.6,3.7,2.4,7.9,2.4,12.8c0,5.1-1,9.7-3,13.8c-2,4.1-4.8,7.2-8.4,9.5
		c-3.6,2.3-7.8,3.5-12.4,3.5c-2.5,0-5.3-0.6-8.5-1.7v9.2c0,2.7-0.1,5.6-0.3,8.4c2-0.2,4-0.3,6.1-0.3v7.3H50.3v-6.2
		c2.4,0,4-0.7,4.7-2c0.7-1.3,1.1-3.5,1.1-6.5V42.3c0-2.9,0.1-5.6,0.4-8.2l-6.8,0.3v-7.3c4,0,7.3-0.3,9.8-0.9c2.5-0.6,4.2-1.2,5-2
		h4.7c0.1,1.1,0.3,2.6,0.5,4.6h0.1c4-3.5,8.2-5.2,12.9-5.2C86.4,23.7,89.8,24.7,92.7,26.7z M73.1,33.5c-1.4,0.8-2.6,1.8-3.5,3.1
		v29.3c0.6,0.4,1.6,0.8,2.8,1.2c1.2,0.4,2.5,0.5,3.8,0.5c7.7,0,11.6-6,11.6-18.1c0-4.7-0.8-8.8-2.5-12.1c-1.7-3.3-4.2-5-7.6-5
		C76.1,32.3,74.6,32.7,73.1,33.5z"/>
	<path d="M128.2,57.7c0,3.1-0.1,5.9-0.4,8.4c2-0.2,4.1-0.3,6.2-0.3v7.3h-25.1v-6.2c2.4,0,4-0.7,4.7-2s1-3.5,1-6.5V42.5
		c0-3,0.1-5.8,0.4-8.3l-6.7,0.3v-7.3c4,0,7.3-0.3,9.8-0.9c2.5-0.6,4.2-1.2,5-2h5.2V57.7z M127.5,2.3c1.4,1.5,2.1,3.4,2.1,5.7
		c0,2.2-0.7,4.1-2,5.6c-1.3,1.5-3,2.2-5.1,2.2c-2.2,0-4-0.8-5.4-2.3C115.7,12,115,10.1,115,8c0-2.2,0.7-4,2.2-5.6
		c1.5-1.6,3.2-2.3,5.2-2.3C124.4,0,126.1,0.8,127.5,2.3z"/>
	<path fill="#08329A" d="M176,7.1L173.7,7c-2.3,0-4.1,0.3-5.4,0.9c-1.3,0.6-2.2,1.8-2.9,3.5c-0.6,1.7-1,4.1-1,7.3
		c0,1.3,0.2,3.9,0.6,7.8c0.1,0.6,0.3,1.7,0.4,3.3c0.1,0.4,0.1,1.1,0.1,1.9c0,4.5-1.5,8.3-4.5,11.2c-3,2.9-6.9,4.6-11.7,5V48
		c5,0.5,9.1,2.4,12.1,5.7c3,3.3,4.4,7.4,4,12.4l-0.4,4.7c-0.4,4-0.7,7.1-0.7,9.1c0,3.6,0.4,6.3,1.2,8.1c0.8,1.8,2,3,3.6,3.6
		c1.6,0.6,3.9,0.8,6.8,0.7v6.8h-2.7c-14.5,0-21.8-6.8-21.8-20.5c0-1.4,0.1-3.2,0.2-5.3c0.1-2.1,0.2-3.6,0.3-4.5
		c0.3-3.6,0.5-6.6,0.5-8.7c0-3.3-0.7-5.6-2-6.9c-1.3-1.3-3.7-1.9-7.2-1.9h-2.2v-6.8h2.2c3.6,0,6-0.6,7.3-1.7
		c1.3-1.2,1.9-3.4,1.9-6.6c0-2.2-0.2-4.7-0.5-7.6c-0.1-0.6-0.2-1.9-0.3-3.6c-0.1-1.8-0.2-3.4-0.2-4.9c0-6.7,1.8-11.7,5.4-14.9
		c3.6-3.2,9-4.8,16.4-4.8h2.7V7.1z"/>
	<path fill="#08329A" d="M211,25.5c2.8,1.2,4.9,2.8,6.3,4.8c1.4,2,2.1,4.2,2.1,6.5c0,2-0.6,3.7-1.8,5.1c-1.2,1.4-2.8,2.1-4.8,2.1
		c-2.1,0-3.7-0.6-4.7-1.9c-1.1-1.3-1.6-2.7-1.6-4.3c0-1.5,0.4-2.9,1.2-4.2c-0.6-1.2-1.5-2-2.8-2.4c-1.3-0.5-2.6-0.7-3.8-0.7
		c-3.3,0-5.9,1.5-7.9,4.5c-2,3-3,7.2-3,12.6c0,5.4,1.1,9.9,3.2,13.4c2.1,3.5,5.4,5.3,10,5.3c2.6,0,5.1-0.7,7.6-2
		c2.5-1.3,4.6-3.1,6.3-5.4l4.4,4.3c-3.2,4.4-6.6,7.4-10.3,9.1c-3.6,1.7-7.5,2.5-11.6,2.5c-4.3,0-8.3-1-11.9-2.9
		c-3.6-1.9-6.4-4.8-8.5-8.4c-2.1-3.7-3.2-8-3.2-13.1c0-4.8,1.1-9.2,3.2-13.3c2.1-4.1,5.1-7.3,8.9-9.7c3.8-2.4,8.1-3.6,12.9-3.6
		C204.9,23.7,208.3,24.3,211,25.5z"/>
	<path fill="#08329A" d="M265.9,25.7c1.6,1.3,2.3,3.3,2.3,5.9c0,1.7-0.5,3.2-1.6,4.6c-1.1,1.4-2.7,2.1-4.9,2.1c-1.6,0-3-0.4-4.3-1.2
		c-1.2-0.8-2-2.3-2.2-4.3c-1.8,0-3.6,1-5.5,3.1c-1.9,2.1-3.1,4.1-3.8,6.2v15.6c0,3.1-0.1,5.9-0.4,8.4c2-0.2,4.1-0.3,6.2-0.3v7.3
		h-25.1v-6.2c2.4,0,4-0.7,4.7-2s1-3.5,1-6.5V42.3c0-2.9,0.1-5.6,0.4-8.2l-6.7,0.3v-7.3c4,0,7.3-0.3,9.8-0.9c2.5-0.6,4.2-1.2,5-2h4.7
		c0.1,1,0.2,2.2,0.3,3.7c0.1,1.5,0.1,3,0.1,4.5h0.2c4.3-5.9,9-8.8,13.8-8.8C262.3,23.7,264.3,24.4,265.9,25.7z"/>
	<path fill="#08329A" d="M311.3,42l-0.1,15.7c0,3.1-0.1,5.9-0.4,8.4c2.1-0.2,4.2-0.3,6.2-0.3v7.3h-18.1c-0.1-0.8-0.3-2.3-0.4-4.4
		h-0.1c-3.9,4-8.6,5.9-14.2,5.9c-4,0-7.2-1.2-9.5-3.6c-2.3-2.4-3.5-5.5-3.5-9.2c0-5.6,2.6-9.9,7.9-12.8c5.2-2.9,11.5-4.5,18.9-4.8
		v-5c0-5.8-2.2-8.7-6.5-8.7c-2.8,0-5.1,0.9-6.9,2.7c0.8,0.9,1.2,2.1,1.2,3.6c0,1.5-0.5,2.9-1.6,4.1c-1.1,1.2-2.6,1.8-4.7,1.8
		c-1.9,0-3.4-0.6-4.5-1.9c-1.1-1.2-1.6-2.8-1.6-4.7c0-2.5,0.9-4.7,2.7-6.6c1.8-1.9,4.2-3.4,7.3-4.5c3.1-1.1,6.5-1.6,10.2-1.6
		C305.4,23.7,311.3,29.8,311.3,42z M288.5,54c-2.5,1.5-3.7,3.6-3.7,6.2c0,1.7,0.5,3,1.6,3.8c1.1,0.8,2.3,1.2,3.9,1.2
		c2.9,0,5.4-1.2,7.6-3.5V51.1C294.1,51.5,291,52.5,288.5,54z"/>
	<path fill="#08329A" d="M356.5,3.3c2,1.7,3,3.6,3,5.9c0,1.8-0.5,3.3-1.6,4.6c-1.1,1.2-2.6,1.9-4.5,1.9c-1.8,0-3.2-0.5-4.2-1.5
		c-1-1-1.5-2.3-1.5-3.9c0-0.8,0.1-1.5,0.2-1.9c-0.5-0.5-1.2-0.8-2.2-0.8c-2.6,0.1-3.8,2-3.8,5.9v11.8h10.7v7.4l-10.6,0.3l0.1,24.6
		c0,3.2-0.1,6.1-0.4,8.6c2.1-0.2,4.3-0.3,6.7-0.3v7.3h-25.6v-6.2c2.4,0,4-0.7,4.7-2c0.7-1.3,1.1-3.5,1.1-6.5V33.1l-7,0.1v-8h7v-2.8
		c0-7.5,1.6-13,4.9-16.4c3.3-3.5,7.9-5.2,13.9-5.2C351.4,0.8,354.5,1.6,356.5,3.3z"/>
	<path fill="#08329A" d="M375.8,25.2h12.2v7.4l-12.2,0.3l-0.1,23.6c0,6.2,1.9,9.3,5.8,9.3c3.1,0,6-1.9,8.7-5.8l4.6,4.3
		c-3,4.4-6,7.2-9,8.5c-3,1.2-5.9,1.9-8.8,1.9c-10,0-15-6.1-15-18.4l0.2-23.1h-6.5v-8c2,0,4-0.6,5.8-1.9c1.8-1.3,3.4-2.8,4.7-4.7
		c1.3-1.9,2.2-3.6,2.7-5.4h7.1L375.8,25.2z"/>
	<path fill="#08329A" d="M436,29.2c4.1,3.6,6.2,9.7,6.1,18.2L410.7,48c0,5.6,1.1,10.1,3.2,13.3c2.1,3.3,5.6,4.9,10.3,4.9
		c2.2,0,4.6-0.6,7.2-1.7c2.6-1.2,4.9-3,6.9-5.5l4.3,4c-5.4,7.8-12.9,11.7-22.3,11.7c-4.7,0-8.8-1-12.4-3.1c-3.6-2.1-6.4-5-8.3-8.9
		c-2-3.8-3-8.3-3-13.4c0-4.5,1-8.7,3-12.6c2-3.9,4.8-7.1,8.5-9.4c3.6-2.4,7.8-3.5,12.5-3.5C426.7,23.7,431.9,25.5,436,29.2z
		 M414.5,33.3c-1.6,2-2.7,4.6-3.2,7.9h17.6c-0.2-7.2-2.8-10.8-7.9-10.8C418.3,30.4,416.1,31.4,414.5,33.3z"/>
	<path fill="#08329A" d="M488.3,25.7c1.6,1.3,2.4,3.3,2.4,5.9c0,1.7-0.5,3.2-1.6,4.6c-1.1,1.4-2.7,2.1-4.9,2.1c-1.6,0-3-0.4-4.3-1.2
		c-1.2-0.8-2-2.3-2.2-4.3c-1.8,0-3.6,1-5.5,3.1c-1.9,2.1-3.2,4.1-3.8,6.2v15.6c0,3.1-0.1,5.9-0.4,8.4c2-0.2,4.1-0.3,6.2-0.3v7.3
		h-25.1v-6.2c2.4,0,4-0.7,4.7-2c0.7-1.3,1-3.5,1-6.5V42.3c0-2.9,0.1-5.6,0.4-8.2l-6.7,0.3v-7.3c4,0,7.3-0.3,9.8-0.9
		c2.5-0.6,4.2-1.2,5-2h4.7c0.1,1,0.2,2.2,0.3,3.7c0.1,1.5,0.1,3,0.1,4.5h0.2c4.3-5.9,9-8.8,13.8-8.8
		C484.7,23.7,486.7,24.4,488.3,25.7z"/>
	<path fill="#08329A" d="M491.8,0.3c7.4,0,12.8,1.6,16.4,4.8c3.6,3.2,5.4,8.2,5.4,14.9c0,1.5-0.1,3.1-0.2,4.9
		c-0.1,1.8-0.2,3-0.3,3.6c-0.3,2.9-0.5,5.4-0.5,7.6c0,3.3,0.6,5.5,1.9,6.6c1.3,1.2,3.7,1.7,7.3,1.7h2.2v6.8h-2.2
		c-3.5,0-5.9,0.6-7.2,1.9c-1.3,1.3-2,3.6-2,6.9c0,2.2,0.2,5.1,0.5,8.7c0.1,0.8,0.2,2.3,0.3,4.5c0.1,2.1,0.2,3.9,0.2,5.3
		c0,13.7-7.3,20.5-21.8,20.5h-2.7v-6.8c2.9,0.1,5.1-0.1,6.8-0.7c1.6-0.6,2.8-1.8,3.6-3.6c0.8-1.8,1.2-4.5,1.2-8.1
		c0-2-0.2-5.1-0.7-9.1l-0.4-4.7c-0.4-5,0.9-9.1,4-12.4c3-3.3,7.1-5.2,12.1-5.7v-0.2c-4.8-0.4-8.7-2.1-11.7-5
		c-3-2.9-4.5-6.6-4.5-11.2c0-0.8,0-1.5,0.1-1.9c0.1-1.5,0.3-2.6,0.4-3.3c0.4-3.8,0.6-6.4,0.6-7.8c0-3.2-0.3-5.6-1-7.3
		c-0.6-1.7-1.6-2.8-2.9-3.5c-1.3-0.6-3.1-0.9-5.4-0.9l-2.3,0.1V0.3H491.8z"/>
</g>
</svg>
